<svg width="159" height="50" viewBox="0 0 159 50" fill="none" xmlns="http://www.w3.org/2000/svg">
<path d="M140.903 24.2846C144.209 20.9765 144.117 25.2465 143.953 27.0724C143.903 27.6425 143.878 28.154 143.878 28.6069C143.878 29.728 143.963 30.5639 144.131 31.1145C144.779 33.2319 146.336 30.2968 146.657 29.58C147.419 27.8804 147.864 24.4527 148.562 23.6209C149.192 22.8682 150.445 21.9272 151.178 23.1724C152.025 24.6194 151.097 27.4327 150.438 28.8177C149.727 30.2826 149.782 32.8724 150.438 34.2738C150.599 34.6184 150.791 34.8755 151.012 35.0437C152.786 36.3965 161.736 19.6192 155.736 31.4493C154.791 33.3179 153.355 35.4533 151.896 36.9578C151.377 37.4925 150.979 37.7598 150.7 37.7598C149.654 37.7598 148.877 37.051 148.37 35.6334C147.882 34.2731 147.638 32.2431 147.638 29.5434V29.1256C146.796 30.9822 145.569 33.9046 144.283 35.306C143.781 35.8507 143.293 36.1232 142.819 36.1237C142.315 36.1237 141.943 35.8013 141.703 35.1566C140.703 32.4711 142.991 25.2981 141.723 25.2981C140.327 25.2981 137.393 32.5241 136.818 33.8874C136.813 30.5427 138.522 26.6666 140.903 24.2846ZM132.899 30.6272C132.985 30.7217 133.062 30.8238 133.13 30.9321C137.546 26.0104 136.561 20.7403 133.473 29.1107C133.29 29.6092 133.075 30.1346 132.899 30.6272ZM105.974 24.5731C106.105 24.7494 106.268 24.8999 106.454 25.017C106.834 25.2615 107.247 25.4496 107.68 25.5754C110.539 14.817 103.835 21.6522 105.976 24.5701L105.974 24.5731ZM110.637 25.387L110.936 25.0948L111.064 25.1531C110.908 25.5701 110.678 26.2323 110.592 26.6315C110.256 28.201 110.165 30.6735 110.547 32.2371C110.589 32.4426 110.664 32.6401 110.768 32.8224C111.425 33.8359 114.386 26.0829 114.527 25.692C114.578 25.5522 114.632 25.4154 114.689 25.2779C114.109 25.1105 113.511 24.9924 113.343 24.3294C113.315 24.214 113.301 24.0955 113.302 23.9766C113.302 23.2389 114.459 22.0789 115.109 21.7815C116.4 21.188 116.991 22.2404 117.347 23.2479C117.616 24.0118 117.446 25.9289 117.416 26.7742C117.341 28.7564 117.267 31.971 118.069 31.2924C118.678 30.7759 119.581 28.1719 119.781 27.5441L119.785 27.5314C119.98 27.0375 120.146 26.5329 120.282 26.0201C120.713 24.4288 120.357 23.8294 121.621 23.1163C121.916 23.0416 122.418 22.922 122.418 23.4198C122.418 23.7823 122.431 24.4781 122.343 24.8197C122.032 26.0642 120.848 34.6789 123.221 29.0262C123.605 28.1061 125.076 23.076 125.147 22.996C125.351 22.7673 126.627 21.9197 126.627 22.8278C126.627 23.1455 126.632 23.9647 126.553 24.2352C125.821 26.6748 125.663 29.3371 125.976 31.8589C126.018 32.1998 126.098 33.4285 126.649 32.7663C127.388 31.7894 128.678 27.3191 129.553 27.3191C129.724 27.3191 130.017 27.565 130.151 27.6786C130.385 20.1349 131.822 9.31 137.016 3.35754C138.784 1.33203 140.099 0.343194 142.754 0.0427306C144.121 -0.111238 148.021 0.0636543 148.021 2.04955C138.006 -1.74809 131.568 17.0421 131.568 25.7884V28.5695C131.563 28.7402 131.58 28.9109 131.62 29.077L132.207 29.7916L133.074 27.4985C133.424 26.5268 134.528 24.0088 135.391 23.422C135.872 23.0932 136.481 23.1836 136.695 23.7464C137.095 24.7794 137.917 26.479 137.68 27.3572C137.401 28.3946 136.456 29.2108 135.726 29.9455C135.108 30.5988 134.576 31.2363 133.989 31.8888L138.663 37.7935C141.447 41.4359 143.997 44.1667 146.311 45.9859C155.952 53.5655 163.725 40.8235 152.328 40.8287C162.302 37.5199 160.892 52.0968 148.38 49.741C147.611 49.5939 146.855 49.3864 146.119 49.1206C141.505 47.4763 139.449 43.077 136.913 39.1754C136.488 38.4514 135.846 37.4419 134.986 36.1469C134.2 34.961 133.235 33.5409 132.09 31.8866C132.09 32.4785 131.63 37.123 130.837 37.6514C129.853 38.3054 128.595 36.6394 128.859 35.7171C128.956 35.3763 129.075 34.9383 129.199 34.4577C129.573 33.0137 129.999 31.184 130.071 30.4216C130.094 30.1877 130.105 29.9896 130.105 29.8289C130.105 26.2181 127.788 32.7678 126.733 34.164C124.705 36.8412 124.088 32.5944 124.14 30.9867C124.152 30.617 124.169 30.2567 124.192 29.9059L124.236 29.3207C124.106 29.6695 123.983 29.9834 123.867 30.2624C123.74 30.5674 123.62 30.8414 123.507 31.0846C121.788 34.7537 119.699 34.5736 119.974 30.5121C119.985 30.3452 120 30.1765 120.019 30.0061C119.621 31.047 119.289 31.8059 119.024 32.2827C118.675 32.916 118.315 33.4014 117.944 33.7387C117.555 34.0875 117.15 34.2818 116.729 34.3217C116.578 34.3382 116.425 34.3143 116.286 34.2525C116.147 34.1906 116.027 34.093 115.938 33.9696C115.749 33.7325 115.608 33.3737 115.516 32.8934C115.414 32.319 115.348 31.7389 115.317 31.1564C115.273 30.4588 115.251 29.6461 115.252 28.7183V27.3161L114.654 28.7115C114.526 29.0828 114.401 29.4186 114.28 29.7191C113.952 30.524 110.799 36.0983 109.621 36.0983C107.143 36.0983 107.898 30.5793 108.201 29.1346C108.301 28.6592 108.4 28.219 108.5 27.8139H108.152C107.966 28.3535 107.771 28.8501 107.566 29.3035C106.922 30.7296 105.61 32.7416 104.202 33.5182C101.565 34.9652 100.371 31.6183 102.104 29.3513C104.634 26.044 101.835 31.8574 104.382 31.246C105.559 30.965 106.642 28.6652 107.033 27.6285C105.918 27.3752 104.118 26.6068 103.693 25.4027C103.035 23.6635 103.739 21.6417 104.988 20.3472C106.171 19.1191 108.527 17.8493 109.072 20.3972C109.354 22.1664 109.005 24.0454 108.687 25.7914C108.809 25.8108 108.93 25.8265 109.048 25.8377C109.546 25.8788 110.271 25.7405 110.637 25.384V25.387ZM99.7246 35.8763C99.9324 37.5839 100.185 38.8824 100.481 39.7719C100.756 40.5985 101.053 41.0507 101.373 41.1284C102.21 39.4131 100.812 37.1073 99.7239 35.8733L99.7246 35.8763ZM103.734 11.3415C103.736 11.4255 103.728 11.5095 103.711 11.5919C103.678 11.7272 103.604 11.7952 103.487 11.7952C99.0093 11.7952 99.3494 26.0096 99.3494 29.4769C99.3494 30.2811 99.3666 31.0734 99.401 31.8537C99.4344 32.6225 99.4842 33.3819 99.5505 34.1318C100.06 34.6421 100.528 35.1919 100.95 35.7762C101.159 36.0667 101.352 36.3689 101.527 36.6813C101.697 36.9856 101.848 37.2998 101.98 37.6223C102.403 38.6747 103.356 40.8818 102.326 41.8041C102.127 41.982 101.214 42.5627 100.98 42.5627C100.582 42.5627 100.151 42.3213 99.688 41.8385C99.249 41.3811 98.7709 40.6997 98.2537 39.7943C97.281 38.0324 96.6061 35.8262 96.2289 33.1759C95.7572 32.9388 95.2724 32.7289 94.7767 32.5473C93.1383 31.9449 91.3483 31.6384 89.6113 31.5069C89.147 34.1112 88.9129 36.7513 88.9117 39.3967V40.0798L88.5836 39.4819C87.5058 37.5266 88.1231 33.652 88.3362 31.462H88.0372C85.6574 31.462 78.1593 31.918 78.1593 35.534C78.1593 36.6746 79.5592 37.6268 77.3229 37.6268C76.8879 37.6268 76.5571 37.4962 76.3303 37.2351C76.1036 36.974 75.9935 36.6051 76 36.1282C76 35.6214 76.2641 35.0669 76.7922 34.4644C79.3402 31.5577 84.8569 30.6668 88.4759 30.5293L88.5245 30.172C88.5484 29.9747 88.5723 29.7721 88.594 29.5666C88.893 26.7152 90.612 22.0259 87.5312 20.1977C84.5415 18.3672 79.5883 18.9271 76.6121 20.6357C76.0348 20.9602 75.5034 21.3604 75.0321 21.8256C73.5828 23.2748 72.7786 25.5791 74.8639 26.9334C77.2781 28.503 82.6655 27.8505 84.2762 25.4386C85.4676 23.6448 84.3853 22.4056 82.3172 22.6103C81.93 22.6552 81.5451 22.7135 81.1594 22.7695L81.7843 22.3443C83.7791 20.9892 85.7456 21.8211 85.7456 24.2636C85.7456 27.9163 78.5143 29.1839 75.5874 28.4313C74.9755 28.2848 74.3971 28.023 73.8833 27.6599C71.3727 25.8235 72.5215 22.5946 74.4573 20.7268C77.5426 17.7484 83.3643 16.2027 87.5499 17.214C88.3187 17.3916 89.0547 17.6892 89.7308 18.0959C90.3836 18.4946 90.8739 18.9889 91.2018 19.5788C91.5296 20.1688 91.6936 20.8494 91.6936 21.6208C91.6917 21.9814 91.665 22.3416 91.6136 22.6985C91.2773 25.1284 90.3624 28.0643 89.8198 30.5315C92.1816 30.5445 94.2575 30.9593 96.0473 31.776C96.0249 31.477 96.0069 31.1693 95.9935 30.8529C95.977 30.4254 95.9673 29.9934 95.9673 29.5576C95.9673 24.461 96.5974 13.1727 102.384 10.8041C102.799 10.6546 103.734 10.7211 103.734 11.3415ZM13.032 22.2336C12.803 21.7949 12.4762 21.4146 12.0768 21.1222C11.7263 20.879 11.3207 20.727 10.8966 20.6798C9.91752 21.9175 9.18082 23.1911 8.68652 24.5006C8.18812 25.8122 7.93282 27.2037 7.93312 28.6069C7.93312 32.9532 10.7942 33.7305 12.6845 30.4179C13.9895 28.1308 14.3355 24.6007 13.032 22.2336ZM26.4856 39.807C26.6104 39.8234 26.7322 39.8414 26.8533 39.8601C29.0507 40.2158 31.2698 41.0343 29.7683 43.5426C29.257 44.3947 28.8796 44.6107 28.0948 45.1017C29.337 42.9267 29.1068 40.7218 25.7397 40.7218C20.9666 40.7218 17.3932 42.3893 12.9834 43.5695C5.2454 45.6443 0 41.3123 0 33.3755C0.00222124 32.7105 0.0569531 32.0467 0.163685 31.3903C1.00752 26.0522 4.31038 20.0773 10.36 20.0773C11.122 19.2408 11.9595 18.4762 12.8616 17.7932C15.657 15.6833 26.0222 11.3901 26.0222 17.6766C26.0222 18.3045 25.1851 18.4031 25.1851 17.8156C25.1851 12.3595 15.7287 16.2924 13.3243 18.2305C12.5835 18.8281 11.8985 19.4918 11.2778 20.2134C11.736 20.3252 12.1697 20.5203 12.5574 20.7889C13.024 21.1199 13.4134 21.548 13.6987 22.0438C15.2616 24.6829 14.6861 28.4671 13.124 30.9613C12.2345 32.3814 10.9916 33.3769 9.25382 33.3769C6.88075 33.3769 6.44576 30.8626 6.5048 28.9903C6.50653 27.4779 6.81151 25.9812 7.40171 24.5888C7.95779 23.2584 8.77148 21.9534 9.84278 20.6738C8.89132 20.7141 7.84418 21.0086 7.09751 21.6036C4.128 23.9699 3.26847 29.5083 3.26847 33.0623C3.26847 33.7464 3.29687 34.3942 3.35368 35.0056C3.95759 41.4775 6.80975 43.2773 13.0246 42.1808C16.6593 41.5395 21.3277 39.7143 24.8585 39.7143L24.8256 39.6971C23.3046 38.9415 24.12 37.1619 24.5475 35.9496C25.6007 32.9681 26.4378 30.9874 27.7786 27.9051C28.189 26.8983 27.9894 26.254 27.1949 27.1576C26.7091 27.8552 25.8097 29.2634 24.4967 31.3821L23.6648 32.8769C23.6088 32.9786 23.558 33.075 23.5154 33.1654C22.7089 34.7724 22.1498 34.4017 22.0571 33.3717C22.0018 32.7506 22.9667 25.3788 22.3673 25.3788C21.6124 25.3788 19.9636 28.8012 19.8859 28.9933C19.3014 30.4837 18.6055 30.9949 18.1137 32.8224L18.104 32.8388C17.4844 34.0115 15.8124 33.6199 16.6092 32.3014C16.7827 32.0269 16.9795 31.7678 17.1974 31.5271C17.3073 31.0589 17.3902 30.5847 17.4455 30.107C17.5027 29.6108 17.5311 29.1116 17.5308 28.6121C17.5291 28.3527 17.4988 28.0943 17.4403 27.8415C17.4082 27.7003 17.3656 27.5545 17.32 27.4043C16.5875 29.4223 16.142 31.4501 14.2062 32.4927L14.4917 31.974C15.5464 30.0554 16.0157 28.1293 16.8573 26.1658C16.4604 24.8601 16.8969 21.5587 18.033 21.0266C19.0256 20.5594 19.9688 20.7388 19.9688 21.9638C18.474 26.5231 19.0234 27.4581 18.8118 29.2609C19.4098 28.3139 19.3141 28.3775 19.767 27.1988C20.0487 26.3321 20.3919 25.4866 20.794 24.6687C21.0989 24.0708 23.5714 20.3053 24.3069 22.8906L24.3136 22.9138V23.2875C24.3088 25.5621 24.1573 27.834 23.8599 30.089C23.8101 30.4498 23.7585 30.7754 23.7052 31.0659C24.3779 29.7706 25.4639 27.6487 26.3795 26.5679C26.7442 26.1374 27.9363 25.0813 28.6344 25.6292C30.0545 26.7615 28.9155 30.5195 28.2906 31.9591C27.609 33.5287 26.4153 35.6723 26.2255 37.283C26.2076 37.4324 26.1971 37.552 26.1934 37.638C30.1046 34.8232 31.2586 27.5926 34.5592 24.2905C35.207 23.6428 35.8149 23.3189 36.3829 23.3189C38.4944 23.3189 37.7156 25.8945 37.6095 27.0762C37.5596 27.6462 37.5347 28.1577 37.5347 28.6106C37.5347 29.7318 37.6189 30.5676 37.7873 31.1182C37.9368 31.6041 38.1421 31.847 38.4032 31.847C39.0012 31.847 39.638 31.0926 40.3136 29.5838C40.6649 28.7995 40.928 28.1462 41.1029 27.624C41.2733 27.1153 41.3585 26.7364 41.3585 26.4872C41.3585 24.3361 43.5896 21.058 44.8325 23.1791C45.0453 23.5429 45.1519 24.077 45.1524 24.7816C45.1524 28.2945 42.3167 30.4904 44.0918 34.2806C45.9215 38.1888 49.5891 28.3401 50.7529 30.3895C50.7775 30.7027 50.3283 33.6497 50.3493 33.868L50.3687 34.0795C51.0855 32.4277 54.5767 22.4482 56.4572 22.4482C56.5432 22.4459 56.6291 22.4578 56.7113 22.4833C57.8063 22.8525 57.3346 25.8168 57.292 26.4977C57.2816 26.6733 56.3869 34.8053 57.0484 34.8053C58.0552 34.8053 61.9709 27.8438 62.2736 27.3535C62.7497 26.5709 64.1369 23.5768 64.4097 23.2942C64.5857 23.1091 64.7985 22.9628 65.0345 22.865C65.2705 22.7671 65.5244 22.7199 65.7797 22.7262C66.7439 22.7262 67.1612 23.2992 67.0317 24.4453C66.9569 25.3646 66.3926 26.3138 66.214 27.5097C65.9427 29.3872 65.7484 31.0697 65.7887 32.9659C65.7937 33.215 65.8017 33.4691 65.8126 33.7282C66.8284 34.9869 69.2665 33.9084 69.2672 32.5652C68.9641 32.5457 68.6672 32.4696 68.392 32.341C67.2066 31.7737 66.8515 30.1526 67.3179 29.0068C67.4069 28.7836 67.5289 28.575 67.6797 28.3879C67.8261 28.2072 68.0141 28.0647 68.2276 27.9723C69.5826 27.3886 71.7083 28.5703 71.9019 30.1399C71.9147 30.2455 71.9207 30.3519 71.9198 30.4583V30.5607C71.8763 31.131 71.7195 31.687 71.4587 32.196C71.281 32.5705 71.0445 32.9142 70.7583 33.214C70.546 33.3994 70.3323 33.5775 70.117 33.7484C68.8464 34.7597 67.7836 35.4578 66.0952 35.4578H66.0854C65.4686 35.428 64.8683 35.2485 64.3365 34.9346C63.7858 34.5972 63.3158 34.143 62.9597 33.6042L62.9351 33.5675C62.6966 31.4695 62.9769 29.7721 63.3297 27.7167C63.243 27.861 63.1458 28.0157 63.0404 28.1712C61.1353 31.0368 59.7765 33.8336 57.9617 36.5258C57.3309 37.4725 56.7828 38.1856 56.3174 38.6649C55.8251 39.1707 55.4098 39.4236 55.0714 39.4236C52.1647 39.4236 55.8704 27.42 55.4205 26.396C54.4638 27.3497 53.1424 31.847 52.1139 33.8635C51.8483 34.3822 51.5798 34.9303 51.3082 35.5078C50.1071 38.064 48.2737 37.3607 47.5539 36.4735C47.3521 36.777 47.6167 34.3934 47.4044 34.6849C46.663 35.689 46.0476 36.4434 45.5583 36.9481C43.9954 38.5573 42.6957 37.4788 42.0297 35.6229C41.5409 34.2626 41.2965 32.2329 41.2965 29.5337V29.1151C41.1365 29.4694 40.9567 29.8561 40.7568 30.2751C40.3901 31.048 39.9489 31.9466 39.4332 32.9711C38.9174 33.9956 38.4192 34.7704 37.9383 35.2956C37.4371 35.8402 36.9492 36.113 36.4749 36.114C35.9716 36.114 35.5996 35.7916 35.359 35.1468C35.1397 34.5579 35.0301 33.6846 35.0301 32.5271C35.0384 32.0222 35.072 31.5181 35.131 31.0166C35.1993 30.3853 35.2989 29.6329 35.43 28.7594C35.565 27.867 35.6647 27.1736 35.729 26.6793C35.7708 26.3602 35.9965 25.2876 35.3762 25.2876C34.9053 25.2876 30 35.7627 27.8272 38.3996C27.6035 38.6692 27.4156 38.8862 27.2637 39.0506L26.4908 39.7943L26.4856 39.807Z" fill="url(#paint0_linear_131_85)"/>
<defs>
<linearGradient id="paint0_linear_131_85" x1="79.453" y1="-53.1151" x2="79.453" y2="120.217" gradientUnits="userSpaceOnUse">
<stop stop-color="#522E79"/>
<stop offset="0.53125" stop-color="#E02348"/>
<stop offset="1" stop-color="#E97A20"/>
</linearGradient>
</defs>
</svg>
