<svg width="27" height="27" viewBox="0 0 27 27" fill="none" xmlns="http://www.w3.org/2000/svg">
<path d="M26.8724 9.70914L22.5176 5.35433C22.4549 5.29184 22.3748 5.24993 22.2877 5.23414L17.4974 4.36318C17.2608 4.32012 17.034 4.47706 16.991 4.71369C16.9863 4.73927 16.984 4.76524 16.984 4.79126C16.9827 4.92963 16.9703 5.06768 16.9469 5.20409L13.9356 4.45158V4.31223C15.1138 4.07174 15.874 2.92158 15.6335 1.74333C15.393 0.565084 14.2429 -0.195101 13.0646 0.0453932C12.051 0.252301 11.3229 1.14384 11.3227 2.17838H12.1937C12.1937 1.45684 12.7786 0.871935 13.5001 0.871935C14.2216 0.871935 14.8066 1.45684 14.8066 2.17838C14.8066 2.89991 14.2216 3.48482 13.5001 3.48482C13.2596 3.48482 13.0646 3.6798 13.0646 3.9203V4.45115L10.0533 5.20409C10.0299 5.06768 10.0175 4.92963 10.0163 4.79126C10.0163 4.66208 9.95906 4.5396 9.85993 4.45681C9.76135 4.37287 9.62989 4.33841 9.50284 4.36318L4.71255 5.23414C4.62546 5.24993 4.54527 5.29184 4.48262 5.35433L0.127817 9.70914C-0.0421839 9.87919 -0.0421839 10.1549 0.127817 10.3249L3.61166 13.8087C3.78171 13.9787 4.05737 13.9787 4.22743 13.8087L5.22599 12.8102V15.6783H2.17762C0.978691 15.6748 0.00397705 16.6439 0.00049321 17.8429C-0.00152089 18.5353 0.32694 19.1872 0.884682 19.5976C-0.0773489 20.3005 -0.287414 21.6502 0.41556 22.6123C0.546803 22.7919 0.705046 22.9501 0.884682 23.0814C-0.0809416 23.792 -0.287686 25.1509 0.422909 26.1165C0.833349 26.6742 1.48521 27.0027 2.17762 27.0007H17.8549C17.9704 27.0007 18.0811 26.9548 18.1628 26.8731L21.6466 23.3893C21.7273 23.3072 21.7718 23.1964 21.7703 23.0814H21.7742V12.8102L22.7728 13.8087C22.9428 13.9787 23.2185 13.9787 23.3886 13.8087L26.8724 10.3249C27.0424 10.1549 27.0424 9.87914 26.8724 9.70914ZM13.5001 5.2398L16.6669 6.03151C16.0105 7.15031 14.7967 7.82247 13.5001 7.78518C12.2035 7.82247 10.9897 7.15031 10.3333 6.03151L13.5001 5.2398ZM0.871182 17.8557C0.871182 17.1341 1.45609 16.5492 2.17762 16.5492H11.7582C12.4797 16.5492 13.0646 17.1341 13.0646 17.8557C13.0646 18.5772 12.4797 19.1621 11.7582 19.1621H2.17762C1.45609 19.1621 0.871182 18.5772 0.871182 17.8557ZM0.871182 21.3395C0.871182 20.618 1.45609 20.0331 2.17762 20.0331H11.7582C12.4797 20.0331 13.0646 20.618 13.0646 21.3395C13.0646 22.061 12.4797 22.646 11.7582 22.646H2.17762C1.45609 22.646 0.871182 22.061 0.871182 21.3395ZM11.7582 26.1298H10.8872H2.17762C1.45609 26.1298 0.871182 25.5449 0.871182 24.8234C0.871182 24.1018 1.45609 23.5169 2.17762 23.5169H11.7582C12.4797 23.5169 13.0646 24.1018 13.0646 24.8234C13.0646 25.5449 12.4797 26.1298 11.7582 26.1298ZM18.2904 25.514V23.5169H20.2875L18.2904 25.514ZM23.0807 12.8851L20.3402 10.1446L19.7244 10.7604L20.9033 11.9392V22.646H17.8549C17.6144 22.646 17.4194 22.8409 17.4194 23.0814V26.1298H13.4888C14.2136 25.1908 14.04 23.8421 13.101 23.1172C13.0853 23.1051 13.0694 23.0931 13.0533 23.0814C14.0153 22.3785 14.2254 21.0288 13.5225 20.0667C13.3912 19.8871 13.233 19.7288 13.0533 19.5976C14.019 18.887 14.2257 17.5281 13.5151 16.5625C13.1042 16.0041 12.4514 15.6756 11.7582 15.6783H6.09695V11.9392L7.27579 10.7604L6.66002 10.1446L3.91954 12.8851L1.05147 10.017L5.00215 6.06634L9.18276 5.30643C9.46756 7.19467 11.2948 8.65615 13.4992 8.65615C15.7036 8.65615 17.5309 7.19467 17.8157 5.30643L21.9963 6.06634L25.9488 10.017L23.0807 12.8851Z" fill="#522E79"/>
</svg>
