<svg width="25" height="25" viewBox="0 0 25 25" fill="none" xmlns="http://www.w3.org/2000/svg">
<path d="M16.462 19.9815C16.3289 19.1357 15.9746 18.3401 15.4351 17.6752C14.8955 17.0104 14.1899 16.4999 13.3896 16.1955L14.1712 13.4598C14.1892 13.397 14.1923 13.3309 14.1804 13.2667C14.1685 13.2024 14.1418 13.1419 14.1025 13.0897C14.0631 13.0376 14.0123 12.9953 13.9538 12.9662C13.8953 12.937 13.8309 12.9219 13.7656 12.9219H9.54687C9.48156 12.9219 9.41714 12.937 9.35868 12.9662C9.30023 12.9953 9.24933 13.0376 9.21001 13.0897C9.17069 13.1419 9.14401 13.2024 9.13207 13.2667C9.12014 13.3309 9.12327 13.397 9.14123 13.4598L9.92286 16.1956C9.12258 16.5 8.41695 17.0105 7.87742 17.6753C7.3379 18.3402 6.98363 19.1358 6.85051 19.9816L6.5621 21.8084C6.50505 22.1697 6.52699 22.5391 6.62641 22.8911C6.72583 23.2431 6.90036 23.5694 7.13799 23.8475C7.37561 24.1256 7.67069 24.3489 8.0029 24.502C8.33511 24.6551 8.69655 24.7344 9.06234 24.7344H14.2501C14.6159 24.7344 14.9774 24.6551 15.3096 24.502C15.6418 24.3489 15.9369 24.1256 16.1745 23.8475C16.4121 23.5694 16.5867 23.2431 16.6861 22.8911C16.7855 22.5391 16.8074 22.1697 16.7504 21.8084L16.462 19.9815ZM10.1062 13.7656H13.2063L12.5781 15.9643C11.9693 15.8452 11.3432 15.8452 10.7343 15.9643L10.1062 13.7656ZM15.5331 23.2994C15.3748 23.4849 15.1781 23.6338 14.9566 23.7359C14.7351 23.838 14.494 23.8908 14.2501 23.8906H9.06234C8.81847 23.8907 8.57748 23.8378 8.35599 23.7358C8.13449 23.6337 7.93775 23.4849 7.77931 23.2995C7.62087 23.1141 7.5045 22.8965 7.4382 22.6618C7.37191 22.4271 7.35728 22.1809 7.3953 21.94L7.68376 20.1131C7.80902 19.3189 8.16954 18.5805 8.71876 17.9933C9.26797 17.406 9.98064 16.997 10.7647 16.8189L9.20378 19.0046L9.89038 19.495L11.2344 17.6133V19.6719H12.0781V17.6133L13.4223 19.4952L14.1089 19.0048L12.548 16.8192C13.332 16.9972 14.0446 17.4062 14.5938 17.9934C15.143 18.5806 15.5035 19.3189 15.6288 20.1131L15.9172 21.94C15.9554 22.1809 15.9408 22.4272 15.8745 22.6619C15.8082 22.8966 15.6917 23.1141 15.5331 23.2994Z" fill="#522E79"/>
<path d="M23.0847 16.2319C22.9778 15.1649 22.5642 14.1516 21.8939 13.3146C21.2235 12.4776 20.3251 11.8526 19.3071 11.5153L20.0775 8.81914C20.0954 8.75635 20.0986 8.69024 20.0866 8.62603C20.0747 8.56182 20.048 8.50126 20.0087 8.44911C19.9694 8.39697 19.9185 8.35466 19.86 8.32554C19.8016 8.29641 19.7372 8.28125 19.6718 8.28125H15.4531C15.3878 8.28125 15.3234 8.29641 15.2649 8.32554C15.2065 8.35466 15.1556 8.39697 15.1162 8.44911C15.0769 8.50126 15.0502 8.56182 15.0383 8.62603C15.0264 8.69024 15.0295 8.75635 15.0475 8.81914L15.8177 11.515C15.3005 11.6862 14.8114 11.9328 14.3662 12.2469L14.8525 12.9364C15.363 12.5758 15.9407 12.3211 16.5513 12.1876L14.7109 14.3348L15.3515 14.8839L17.1406 12.7967V15.4531H17.9843V12.7967L19.7734 14.8839L20.414 14.3348L18.5733 12.1873C19.5437 12.398 20.4221 12.9112 21.082 13.6532C21.7419 14.3952 22.1493 15.3275 22.2453 16.3158L22.8172 22.0352C22.8407 22.2698 22.8148 22.5067 22.741 22.7307C22.6673 22.9547 22.5475 23.1607 22.3893 23.3355C22.231 23.5103 22.0379 23.6501 21.8224 23.7457C21.6068 23.8413 21.3737 23.8907 21.1379 23.8906H17.1406V24.7344H21.1379C21.4915 24.7344 21.8412 24.6603 22.1645 24.5168C22.4878 24.3734 22.7774 24.1638 23.0147 23.9016C23.252 23.6394 23.4317 23.3304 23.5423 22.9944C23.6528 22.6585 23.6918 22.3032 23.6566 21.9513L23.0847 16.2319ZM16.0124 9.125H19.1125L18.4874 11.313C17.8751 11.2085 17.2496 11.2082 16.6372 11.3119L16.0124 9.125Z" fill="#522E79"/>
<path d="M22.4187 11.418C21.9038 10.9517 21.3245 10.562 20.6985 10.2607L20.3328 11.0211C21.2824 11.4782 22.1044 12.1628 22.7258 13.0141C23.3472 13.8654 23.7487 14.8569 23.8947 15.9007L24.7304 15.7843C24.495 14.1031 23.6769 12.5578 22.4187 11.418Z" fill="#E02348"/>
<path d="M2.62628 23.3301C2.46813 23.1536 2.34887 22.9458 2.27624 22.7203C2.20362 22.4947 2.17925 22.2564 2.20472 22.0208L3.33065 11.6623C3.5009 10.0766 4.20074 8.59471 5.31711 7.4559C6.43349 6.31708 7.9012 5.58789 9.48312 5.38613L7.10448 8.44436L7.77052 8.96231L9.96875 6.1358V9.96875H10.8125V6.1358L13.0107 8.96237L13.6768 8.44441L11.2991 5.3874C12.9308 5.60065 14.4387 6.37118 15.5676 7.56854L16.1824 6.99073C15.243 5.99384 14.0627 5.25574 12.7551 4.84756L13.9243 0.804992C13.9425 0.742136 13.9458 0.675902 13.934 0.611527C13.9223 0.547152 13.8957 0.486401 13.8563 0.43408C13.817 0.381758 13.7661 0.3393 13.7075 0.310063C13.649 0.280826 13.5844 0.265613 13.519 0.265625H7.19086C7.12611 0.265638 7.06223 0.280556 7.00417 0.309223C6.94611 0.33789 6.89543 0.379537 6.85605 0.430939C6.81667 0.48234 6.78965 0.542116 6.77709 0.605637C6.76452 0.669157 6.76675 0.734718 6.78359 0.79724L7.88574 4.88663C6.43988 5.36552 5.16242 6.25047 4.20594 7.4358C3.24946 8.62113 2.65439 10.0567 2.49181 11.5711L1.36593 21.9296C1.32751 22.283 1.36397 22.6405 1.47291 22.9789C1.58186 23.3173 1.76086 23.6289 1.99825 23.8935C2.23564 24.1581 2.5261 24.3697 2.85072 24.5146C3.17533 24.6595 3.52683 24.7344 3.88231 24.7344H6.17188V23.8906H3.88231C3.64535 23.8905 3.41106 23.8405 3.19467 23.7439C2.97829 23.6474 2.78463 23.5063 2.62628 23.3301ZM7.74151 1.10938H12.9579L11.9373 4.63841C11.4281 4.53628 10.91 4.48468 10.3906 4.48438C9.82211 4.48414 9.2552 4.54453 8.69949 4.66452L7.74151 1.10938Z" fill="#522E79"/>
<path d="M1.65299 11.48C1.78487 10.2741 2.16416 9.10844 2.76714 8.05587C3.37011 7.00331 4.1838 6.08649 5.15729 5.36277L4.6551 4.68481C3.58812 5.47792 2.69627 6.48266 2.03535 7.6362C1.37443 8.78974 0.958656 10.0673 0.814038 11.3888L0.560913 13.7201L1.39939 13.8112L1.65299 11.48Z" fill="#E02348"/>
<path d="M0.4691 14.5637L0.377411 15.4075L1.21622 15.4986L1.30791 14.6549L0.4691 14.5637Z" fill="#E02348"/>
</svg>
