<svg width="48" height="48" viewBox="0 0 48 48" fill="none" xmlns="http://www.w3.org/2000/svg">
<path d="M42.7112 20.3348C44.4936 22.078 45.6 24.5092 45.6 27.1996C45.6 32.5012 41.3016 36.7996 36 36.7996C30.6984 36.7996 26.4 32.5012 26.4 27.1996C26.4 21.898 30.6984 17.5996 36 17.5996C37.6568 17.5996 39.216 18.0196 40.576 18.758" stroke="#522E79" stroke-width="2" stroke-miterlimit="10"/>
<path d="M42.4 34.355V45.5998L36 41.4126L29.6 45.5998V34.355" stroke="#522E79" stroke-width="2" stroke-miterlimit="10"/>
<path d="M32.8 32H39.2" stroke="#522E79" stroke-width="2" stroke-miterlimit="10"/>
<path d="M32.8 22.3999H36V31.9999" stroke="#522E79" stroke-width="2" stroke-miterlimit="10"/>
<path d="M27.1984 31.0399C25.1656 33.1135 22.3328 34.3999 19.2 34.3999C13.0144 34.3999 8 29.3855 8 23.1999V10.3999H30.4V19.4015" stroke="#522E79" stroke-width="2" stroke-miterlimit="10"/>
<path d="M19.2 34.3999V41.5999" stroke="#522E79" stroke-width="2" stroke-miterlimit="10"/>
<path d="M13.6 41.5996H24.8" stroke="#522E79" stroke-width="2" stroke-miterlimit="10"/>
<path d="M15.1032 30.0725C14.6256 29.7869 14.18 29.4533 13.7736 29.0781" stroke="#E02348" stroke-width="2" stroke-miterlimit="10"/>
<path d="M12.2008 27.0769C11.5632 25.9281 11.2 24.6065 11.2 23.2001V21.6001" stroke="#E02348" stroke-width="2" stroke-miterlimit="10"/>
<path d="M8 10.3997V7.99971C8 7.55811 7.6416 7.19971 7.2 7.19971H3.19999C2.75839 7.19971 2.39999 7.55811 2.39999 7.99971V16.7997C2.39999 19.0085 4.19119 20.7997 6.39999 20.7997H8" stroke="#522E79" stroke-width="2" stroke-miterlimit="10"/>
<path d="M30.4 10.3997V7.99971C30.4 7.55811 30.7584 7.19971 31.2 7.19971H35.2C35.6416 7.19971 36 7.55811 36 7.99971V16.7997C36 17.0733 35.9728 17.3413 35.92 17.5997" stroke="#522E79" stroke-width="2" stroke-miterlimit="10"/>
<path d="M40.8 4.7998V12.7998" stroke="#E02348" stroke-width="2" stroke-miterlimit="10"/>
<path d="M44.8 6.3999V8.7999" stroke="#E02348" stroke-width="2" stroke-miterlimit="10"/>
<path d="M44.8 10.3999V18.3999" stroke="#E02348" stroke-width="2" stroke-miterlimit="10"/>
<path d="M6.39999 30.3999V38.3999" stroke="#E02348" stroke-width="2" stroke-miterlimit="10"/>
<path d="M6.39999 40V42.4" stroke="#E02348" stroke-width="2" stroke-miterlimit="10"/>
<path d="M19.2 2.3999V6.3999" stroke="#E02348" stroke-width="2" stroke-miterlimit="10"/>
<path d="M22.7192 7.68074L25.2808 5.11914" stroke="#E02348" stroke-width="2" stroke-miterlimit="10"/>
<path d="M15.6808 7.68074L13.1192 5.11914" stroke="#E02348" stroke-width="2" stroke-miterlimit="10"/>
</svg>
