<svg width="48" height="48" viewBox="0 0 48 48" fill="none" xmlns="http://www.w3.org/2000/svg">
<g clip-path="url(#clip0_184_101)">
<path d="M46.2528 14.7366C46.3456 14.867 46.4 15.027 46.4 15.1998C46.4 15.4246 46.3088 15.6286 46.1584 15.7726C36.2168 25.2998 34.4 26.5998 21.9512 32.719C21.8456 32.771 21.7256 32.7998 21.6 32.7998C21.3168 32.7998 21.068 32.6526 20.9264 32.431L12.1264 18.831C12.0464 18.7062 12 18.5582 12 18.3998C12 18.0502 12.224 17.7534 12.536 17.6446C21.8008 14.4022 29.4 9.5998 35.3368 1.1526C35.484 0.942205 35.724 0.799805 36 0.799805C36.2712 0.799805 36.5104 0.934205 36.6552 1.1406L46.2528 14.7366Z" stroke="#522E79" stroke-width="2" stroke-miterlimit="10"/>
<path d="M40.8384 12.7332L37.6488 8.21396C37.1936 8.57476 36.6256 8.79956 36 8.79956C35.2704 8.79956 34.6112 8.50516 34.1304 8.03076C29.8072 12.7132 24.764 15.9932 19.0032 18.4644C19.128 18.7732 19.2 19.1092 19.2 19.4628C19.2 20.4012 18.7128 21.222 17.9808 21.6972L21.2432 26.7388C21.6232 26.5292 22.0544 26.3996 22.5192 26.3996C23.36 26.3996 24.1016 26.7972 24.5896 27.406C31.8728 23.7068 34.8472 21.654 40.5936 16.3228C40.228 15.8668 40 15.2956 40 14.6652C40 13.902 40.3248 13.2188 40.8384 12.7332V12.7332Z" stroke="#522E79" stroke-width="2" stroke-miterlimit="10"/>
<path d="M29.6 19.1996C30.0418 19.1996 30.4 18.8414 30.4 18.3996C30.4 17.9578 30.0418 17.5996 29.6 17.5996C29.1582 17.5996 28.8 17.9578 28.8 18.3996C28.8 18.8414 29.1582 19.1996 29.6 19.1996Z" stroke="#522E79" stroke-width="2" stroke-miterlimit="10"/>
<path d="M38.0504 26.583L39.8528 29.1366C39.9456 29.267 40 29.427 40 29.5998C40 29.8246 39.9088 30.0286 39.7584 30.1726C29.8168 39.6998 28 40.9998 15.5512 47.119C15.4456 47.171 15.3256 47.1998 15.2 47.1998C14.9168 47.1998 14.668 47.0526 14.5264 46.831L5.72638 33.231C5.64638 33.1062 5.59998 32.9582 5.59998 32.7998C5.59998 32.4502 5.82398 32.1534 6.13598 32.0446C9.00958 31.039 11.7232 29.883 14.2768 28.515" stroke="#522E79" stroke-width="2" stroke-miterlimit="10"/>
<path d="M16.6543 30.9223C15.3008 31.6527 14.0463 32.2447 12.6023 32.8647C12.7279 33.1735 12.7999 33.5095 12.7999 33.8631C12.7999 34.8015 12.3127 35.6223 11.5807 36.0975L14.8432 41.1391C15.2232 40.9295 15.6543 40.7999 16.1191 40.7999C16.9599 40.7999 17.7015 41.1975 18.1895 41.8063C25.4727 38.1071 28.4471 36.0543 34.1935 30.7231" stroke="#522E79" stroke-width="2" stroke-miterlimit="10"/>
<path d="M12.4864 12.7646L10.4264 14.023" stroke="#E02348" stroke-width="2" stroke-miterlimit="10"/>
<path d="M14.7272 7.5831L18.78 5.1087L17.7472 3.6631C17.6544 3.5327 17.6 3.3727 17.6 3.1999C17.6 2.7583 17.9584 2.3999 18.4 2.3999H24C24.4416 2.3999 24.8 2.7583 24.8 3.1999C24.8 3.2759 24.7896 3.3503 24.7696 3.4199L23.1696 9.0199C23.0736 9.3551 22.7656 9.5999 22.4 9.5999C22.1304 9.5999 21.8928 9.4671 21.7472 9.2631L20.676 7.7631L14.5408 11.5095" stroke="#E02348" stroke-width="2" stroke-miterlimit="10"/>
<path d="M9.98956 10.476L12.0472 9.21924" stroke="#E02348" stroke-width="2" stroke-miterlimit="10"/>
<path d="M5.896 12.9752L7.9432 11.7256" stroke="#E02348" stroke-width="2" stroke-miterlimit="10"/>
<path d="M10.1656 22.9365L7.61918 24.4909L8.65198 25.9365C8.74558 26.0669 8.79998 26.2269 8.79998 26.3997C8.79998 26.8413 8.44158 27.1997 7.99998 27.1997H2.39998C1.95838 27.1997 1.59998 26.8413 1.59998 26.3997C1.59998 26.3237 1.61038 26.2493 1.63038 26.1797L3.23038 20.5797C3.32638 20.2445 3.63438 19.9997 3.99998 19.9997C4.26958 19.9997 4.50718 20.1325 4.65278 20.3365L5.72398 21.8365L9.44078 19.5669" stroke="#E02348" stroke-width="2" stroke-miterlimit="10"/>
<path d="M36 40H34.4V41.6H36V40Z" fill="#E02348"/>
<path d="M32.8 42.3999H31.2V43.9999H32.8V42.3999Z" fill="#E02348"/>
<path d="M39.2 37.6001H37.6V39.2001H39.2V37.6001Z" fill="#E02348"/>
<path d="M41.6 34.3999H40V35.9999H41.6V34.3999Z" fill="#E02348"/>
<path d="M44 31.2002H42.4V32.8002H44V31.2002Z" fill="#E02348"/>
</g>
<defs>
<clipPath id="clip0_184_101">
<rect width="48" height="48" fill="white"/>
</clipPath>
</defs>
</svg>
